<?xml version="1.0" encoding="UTF-8"?>
<svg version="1.1" xmlns="http://www.w3.org/2000/svg" width="64" height="64">
<path d="M0 0 C1.10794922 -0.01260864 2.21589844 -0.02521729 3.35742188 -0.03820801 C4.54916016 -0.03011108 5.74089844 -0.02201416 6.96875 -0.01367188 C8.19658203 -0.01749878 9.42441406 -0.02132568 10.68945312 -0.02526855 C13.28516459 -0.02799029 15.88090336 -0.02061099 18.4765625 -0.00390625 C22.45374599 0.01749738 26.42912282 -0.0037015 30.40625 -0.02929688 C32.92708733 -0.02665365 35.44792353 -0.02152878 37.96875 -0.01367188 C39.16048828 -0.0217688 40.35222656 -0.02986572 41.58007812 -0.03820801 C43.24200195 -0.01929504 43.24200195 -0.01929504 44.9375 0 C45.91138672 0.00318237 46.88527344 0.00636475 47.88867188 0.00964355 C51.27982566 0.67725289 52.44432128 1.74092988 54.46875 4.51757812 C54.97668457 7.09765625 54.97668457 7.09765625 54.98632812 10.04882812 C54.99893677 11.15677734 55.01154541 12.26472656 55.02453613 13.40625 C55.01643921 14.59798828 55.00834229 15.78972656 55 17.01757812 C55.00574036 18.85932617 55.00574036 18.85932617 55.01159668 20.73828125 C55.01431842 23.33399272 55.00693911 25.92973149 54.99023438 28.52539062 C54.96883075 32.50257412 54.99002963 36.47795094 55.015625 40.45507812 C55.01298177 42.97591545 55.00785691 45.49675166 55 48.01757812 C55.00809692 49.20931641 55.01619385 50.40105469 55.02453613 51.62890625 C55.01192749 52.73685547 54.99931885 53.84480469 54.98632812 54.98632812 C54.98314575 55.96021484 54.97996338 56.93410156 54.97668457 57.9375 C54.30907524 61.32865378 53.24539824 62.4931494 50.46875 64.51757812 C47.88867188 65.0255127 47.88867188 65.0255127 44.9375 65.03515625 C43.82955078 65.04776489 42.72160156 65.06037354 41.58007812 65.07336426 C40.38833984 65.06526733 39.19660156 65.05717041 37.96875 65.04882812 C36.12700195 65.05456848 36.12700195 65.05456848 34.24804688 65.0604248 C31.65233541 65.06314654 29.05659664 65.05576724 26.4609375 65.0390625 C22.48375401 65.01765887 18.50837718 65.03885775 14.53125 65.06445312 C12.01041267 65.0618099 9.48957647 65.05668503 6.96875 65.04882812 C5.18114258 65.06097351 5.18114258 65.06097351 3.35742188 65.07336426 C2.24947266 65.06075562 1.14152344 65.04814697 0 65.03515625 C-0.97388672 65.03197388 -1.94777344 65.0287915 -2.95117188 65.0255127 C-6.34232566 64.35790336 -7.50682128 63.29422637 -9.53125 60.51757812 C-10.03918457 57.9375 -10.03918457 57.9375 -10.04882812 54.98632812 C-10.06143677 53.87837891 -10.07404541 52.77042969 -10.08703613 51.62890625 C-10.07893921 50.43716797 -10.07084229 49.24542969 -10.0625 48.01757812 C-10.0663269 46.78974609 -10.07015381 45.56191406 -10.07409668 44.296875 C-10.07681842 41.70116353 -10.06943911 39.10542476 -10.05273438 36.50976562 C-10.03133075 32.53258213 -10.05252963 28.55720531 -10.078125 24.58007812 C-10.07548177 22.0592408 -10.07035691 19.53840459 -10.0625 17.01757812 C-10.07059692 15.82583984 -10.07869385 14.63410156 -10.08703613 13.40625 C-10.07442749 12.29830078 -10.06181885 11.19035156 -10.04882812 10.04882812 C-10.04564575 9.07494141 -10.04246338 8.10105469 -10.03918457 7.09765625 C-8.91711969 1.39807362 -5.396739 0.01763494 0 0 Z M-3.3006897 6.74813843 C-4.89268596 9.0372919 -4.91151186 10.43877579 -4.91943359 13.21679688 C-4.92889008 14.1678833 -4.93834656 15.11896973 -4.9480896 16.09887695 C-4.94201691 17.12392334 -4.93594421 18.14896973 -4.9296875 19.20507812 C-4.93255768 20.25912842 -4.93542786 21.31317871 -4.93838501 22.39916992 C-4.94042713 24.62842343 -4.93488698 26.8576948 -4.92236328 29.08691406 C-4.90631231 32.50431281 -4.92220759 35.92052878 -4.94140625 39.33789062 C-4.93942385 41.50195574 -4.93558023 43.66602012 -4.9296875 45.83007812 C-4.93576019 46.85512451 -4.94183289 47.8801709 -4.9480896 48.9362793 C-4.93863312 49.88736572 -4.92917664 50.83845215 -4.91943359 51.81835938 C-4.91704681 52.65536377 -4.91466003 53.49236816 -4.91220093 54.35473633 C-4.44230452 57.02256442 -3.68316105 57.91287501 -1.53125 59.51757812 C1.27608884 59.93205026 1.27608884 59.93205026 4.44921875 59.81054688 C6.19428711 59.79604492 6.19428711 59.79604492 7.97460938 59.78125 C9.18955078 59.75611328 10.40449219 59.73097656 11.65625 59.70507812 C13.49606445 59.68477539 13.49606445 59.68477539 15.37304688 59.6640625 C18.4051345 59.62866848 21.43699691 59.57486107 24.46875 59.51757812 C24.46875 52.91757812 24.46875 46.31757812 24.46875 39.51757812 C22.15875 39.51757812 19.84875 39.51757812 17.46875 39.51757812 C17.46875 36.54757813 17.46875 33.57757813 17.46875 30.51757812 C19.77875 30.51757812 22.08875 30.51757812 24.46875 30.51757812 C24.55511719 29.85371094 24.64148438 29.18984375 24.73046875 28.50585938 C25.4035295 24.27607395 26.09631909 21.10625923 28.40625 17.45507812 C32.88202601 14.62346473 37.2611132 14.61790038 42.46875 14.51757812 C42.46875 17.15757813 42.46875 19.79757813 42.46875 22.51757812 C41.355 22.47632812 40.24125 22.43507813 39.09375 22.39257812 C35.42508975 22.10635954 35.42508975 22.10635954 33.46875 24.51757812 C33.30193891 27.60105638 33.30193891 27.60105638 33.46875 30.51757812 C36.43875 30.51757812 39.40875 30.51757812 42.46875 30.51757812 C42.13875 33.48757812 41.80875 36.45757812 41.46875 39.51757812 C38.82875 39.51757812 36.18875 39.51757812 33.46875 39.51757812 C33.46875 46.11757813 33.46875 52.71757813 33.46875 59.51757812 C41.09393602 60.35865142 41.09393602 60.35865142 48.14053345 58.29296875 C49.85539645 56.00075842 49.84881468 54.66552954 49.85693359 51.81835938 C49.86639008 50.86727295 49.87584656 49.91618652 49.8855896 48.9362793 C49.87951691 47.91123291 49.87344421 46.88618652 49.8671875 45.83007812 C49.87149277 44.24900269 49.87149277 44.24900269 49.87588501 42.63598633 C49.87792713 40.40673282 49.87238698 38.17746145 49.85986328 35.94824219 C49.84381231 32.53084344 49.85970759 29.11462747 49.87890625 25.69726562 C49.87692385 23.53320051 49.87308023 21.36913613 49.8671875 19.20507812 C49.87326019 18.18003174 49.87933289 17.15498535 49.8855896 16.09887695 C49.87613312 15.14779053 49.86667664 14.1967041 49.85693359 13.21679688 C49.85335342 11.96129028 49.85335342 11.96129028 49.84970093 10.68041992 C49.61542146 8.46430975 49.61542146 8.46430975 48.2381897 6.74813843 C45.94903623 5.15614216 44.54755233 5.13731626 41.76953125 5.12939453 C40.81844482 5.11993805 39.8673584 5.11048157 38.88745117 5.10073853 C37.86240479 5.10681122 36.8373584 5.11288391 35.78125 5.11914062 C34.72719971 5.11627045 33.67314941 5.11340027 32.5871582 5.11044312 C30.35790469 5.10840099 28.12863333 5.11394114 25.89941406 5.12646484 C22.48201532 5.14251582 19.06579935 5.12662054 15.6484375 5.10742188 C13.48437238 5.10940428 11.320308 5.1132479 9.15625 5.11914062 C8.13120361 5.11306793 7.10615723 5.10699524 6.05004883 5.10073853 C4.62341919 5.11492325 4.62341919 5.11492325 3.16796875 5.12939453 C2.33096436 5.13178131 1.49395996 5.13416809 0.6315918 5.1366272 C-1.58451838 5.37090667 -1.58451838 5.37090667 -3.3006897 6.74813843 Z " fill="#000000" transform="translate(9.53125,-0.517578125)"/>
</svg>
