<?xml version="1.0" encoding="UTF-8"?>
<svg version="1.1" xmlns="http://www.w3.org/2000/svg" width="64" height="64">
<path d="M0 0 C0.82023148 -0.00807175 1.64046295 -0.01614349 2.48554993 -0.02445984 C4.22301123 -0.03828743 5.96049954 -0.04901551 7.69799805 -0.05688477 C9.46598324 -0.06838307 11.23393432 -0.0888008 13.00170898 -0.1184082 C15.56387794 -0.16131477 18.12501527 -0.17728716 20.6875 -0.1875 C21.46800217 -0.20500809 22.24850433 -0.22251617 23.05265808 -0.24055481 C28.65549278 -0.21871411 33.15822818 0.78780742 37.67578125 4.23828125 C42.48829571 9.45720536 43.42620784 14.58877849 43.33984375 21.48828125 C43.34462738 22.34583008 43.34941101 23.20337891 43.3543396 24.08691406 C43.35772162 25.88869069 43.34863882 27.69053011 43.32763672 29.4921875 C43.30084389 32.2318759 43.32743964 34.9674685 43.359375 37.70703125 C43.3560706 39.46745685 43.34966373 41.22787993 43.33984375 42.98828125 C43.35502548 44.20112793 43.35502548 44.20112793 43.37051392 45.43847656 C43.24887927 51.41497375 41.77745711 55.79321478 37.67578125 60.23828125 C32.47847168 64.18362499 27.22118661 64.83684079 20.86328125 64.76953125 C19.64354614 64.77527161 19.64354614 64.77527161 18.39916992 64.78112793 C16.6915563 64.78383218 14.9839002 64.77657587 13.27636719 64.75976562 C10.68199162 64.73833256 8.09038454 64.75961609 5.49609375 64.78515625 C3.82681688 64.78251271 2.15754172 64.77738718 0.48828125 64.76953125 C-0.27653564 64.77762817 -1.04135254 64.7857251 -1.8293457 64.79406738 C-7.35181257 64.69924938 -11.74068625 63.39387735 -16.32421875 60.23828125 C-20.85715319 54.54305593 -21.49642568 49.98599648 -21.5625 42.9140625 C-21.57057175 42.09383102 -21.57864349 41.27359955 -21.58695984 40.42851257 C-21.60078743 38.69105127 -21.61151551 36.95356296 -21.61938477 35.21606445 C-21.63088307 33.44807926 -21.6513008 31.68012818 -21.6809082 29.91235352 C-21.72381477 27.35018456 -21.73978716 24.78904723 -21.75 22.2265625 C-21.76750809 21.44606033 -21.78501617 20.66555817 -21.80305481 19.86140442 C-21.78124157 14.26561263 -20.5391256 9.87588479 -17.32421875 5.23828125 C-11.62899343 0.70534681 -7.07193398 0.06607432 0 0 Z M-12.19921875 10.86328125 C-18.05882173 20.16970951 -16.28000878 37.58927829 -14.69921875 48.17578125 C-13.5299228 52.86955081 -11.41939101 54.7490589 -7.32421875 57.23828125 C-1.30394241 58.82771555 4.93389058 58.42251346 11.11328125 58.42578125 C12.32822266 58.43802734 13.54316406 58.45027344 14.79492188 58.46289062 C15.97119141 58.46482422 17.14746094 58.46675781 18.359375 58.46875 C19.42728271 58.47285889 20.49519043 58.47696777 21.59545898 58.48120117 C26.46331658 58.0973129 29.75101952 57.01919116 33.48828125 53.86328125 C38.08182998 48.35102278 36.896487 41.37204141 36.91601562 34.50366211 C36.92570135 32.44278283 36.95674203 30.38291038 36.98828125 28.32226562 C37.12253633 18.83701441 37.12253633 18.83701441 33.67578125 10.23828125 C27.09172093 5.04033889 18.75754923 6.05517725 10.80078125 6.05078125 C9.06248047 6.03241211 9.06248047 6.03241211 7.2890625 6.01367188 C-3.30351539 5.81864612 -3.30351539 5.81864612 -12.19921875 10.86328125 Z " fill="#000000" transform="translate(21.32421875,-0.23828125)"/>
<path d="M0 0 C4.45346272 2.51220974 7.0228475 5.7221204 8.8125 10.5 C9.83172656 15.7632191 9.39521872 20.14880045 6.8125 24.875 C3.47987977 29.51250534 -0.61641715 31.83432242 -6.19921875 32.875 C-11.49637257 33.20802342 -15.91285865 31.59935193 -20.1875 28.5 C-23.97962818 23.73553126 -25.56654396 19.82731879 -25.46484375 13.69140625 C-24.77171455 8.21470932 -22.3902364 4.45728 -18.125 1.0625 C-12.09458546 -2.14516731 -6.28850059 -2.70357885 0 0 Z M-17.1875 10.5 C-18.63897903 13.40295805 -18.55989025 15.27261779 -18.1875 18.5 C-16.37439858 21.42937654 -14.31454101 23.93647949 -11.1875 25.5 C-6.53341099 25.9136968 -3.93510524 25.31070393 -0.1875 22.5 C2.25855705 18.83091443 2.65196402 15.76381231 1.8125 11.5 C-1.10938632 7.88608798 -3.30375474 5.75687435 -7.9375 5.125 C-12.4628858 5.6471599 -13.9546103 7.34229378 -17.1875 10.5 Z " fill="#000000" transform="translate(40.1875,16.5)"/>
<path d="M0 0 C1.98 0 3.96 0 6 0 C7.125 2.3125 7.125 2.3125 8 5 C7.01 6.485 7.01 6.485 6 8 C3.5 8.3125 3.5 8.3125 1 8 C0.34 7.34 -0.32 6.68 -1 6 C-0.625 2.875 -0.625 2.875 0 0 Z " fill="#000000" transform="translate(46,11)"/>
</svg>
