<?xml version="1.0" encoding="UTF-8"?>
<svg version="1.1" xmlns="http://www.w3.org/2000/svg" width="106" height="17">
<path d="M0 0 C0.66 0 1.32 0 2 0 C2.20625 0.804375 2.4125 1.60875 2.625 2.4375 C3.07875 3.283125 3.5325 4.12875 4 5 C7.05272465 5.89830839 7.05272465 5.89830839 10 6 C9.5359375 6.8971875 9.5359375 6.8971875 9.0625 7.8125 C7.43642261 11.1603064 7 13.2094894 7 17 C5.948125 16.814375 4.89625 16.62875 3.8125 16.4375 C0.42880118 16.04920669 -1.76425888 16.11752515 -5 17 C-4.938125 16.071875 -4.87625 15.14375 -4.8125 14.1875 C-4.67622737 11.02056752 -4.67622737 11.02056752 -6.5 9.25 C-6.995 8.8375 -7.49 8.425 -8 8 C-8 7.34 -8 6.68 -8 6 C-6.576875 5.9071875 -6.576875 5.9071875 -5.125 5.8125 C-4.09375 5.544375 -3.0625 5.27625 -2 5 C-0.54708727 2.53744315 -0.54708727 2.53744315 0 0 Z " fill="#000000" transform="translate(96,0)"/>
<path d="M0 0 C0.66 0 1.32 0 2 0 C2.20625 0.804375 2.4125 1.60875 2.625 2.4375 C3.07875 3.283125 3.5325 4.12875 4 5 C7.05272465 5.89830839 7.05272465 5.89830839 10 6 C9.5359375 6.8971875 9.5359375 6.8971875 9.0625 7.8125 C7.43642261 11.1603064 7 13.2094894 7 17 C5.948125 16.814375 4.89625 16.62875 3.8125 16.4375 C0.42880118 16.04920669 -1.76425888 16.11752515 -5 17 C-4.938125 16.071875 -4.87625 15.14375 -4.8125 14.1875 C-4.67622737 11.02056752 -4.67622737 11.02056752 -6.5 9.25 C-6.995 8.8375 -7.49 8.425 -8 8 C-8 7.34 -8 6.68 -8 6 C-6.576875 5.9071875 -6.576875 5.9071875 -5.125 5.8125 C-4.09375 5.544375 -3.0625 5.27625 -2 5 C-0.54708727 2.53744315 -0.54708727 2.53744315 0 0 Z " fill="#000000" transform="translate(74,0)"/>
<path d="M0 0 C0.66 0 1.32 0 2 0 C2.20625 0.804375 2.4125 1.60875 2.625 2.4375 C3.07875 3.283125 3.5325 4.12875 4 5 C7.05272465 5.89830839 7.05272465 5.89830839 10 6 C9.5359375 6.8971875 9.5359375 6.8971875 9.0625 7.8125 C7.43642261 11.1603064 7 13.2094894 7 17 C5.948125 16.814375 4.89625 16.62875 3.8125 16.4375 C0.42880118 16.04920669 -1.76425888 16.11752515 -5 17 C-4.938125 16.071875 -4.87625 15.14375 -4.8125 14.1875 C-4.67622737 11.02056752 -4.67622737 11.02056752 -6.5 9.25 C-6.995 8.8375 -7.49 8.425 -8 8 C-8 7.34 -8 6.68 -8 6 C-6.576875 5.9071875 -6.576875 5.9071875 -5.125 5.8125 C-4.09375 5.544375 -3.0625 5.27625 -2 5 C-0.54708727 2.53744315 -0.54708727 2.53744315 0 0 Z " fill="#000000" transform="translate(52,0)"/>
<path d="M0 0 C0.66 0 1.32 0 2 0 C2.20625 0.804375 2.4125 1.60875 2.625 2.4375 C3.07875 3.283125 3.5325 4.12875 4 5 C7.05272465 5.89830839 7.05272465 5.89830839 10 6 C9.5359375 6.8971875 9.5359375 6.8971875 9.0625 7.8125 C7.43642261 11.1603064 7 13.2094894 7 17 C5.948125 16.814375 4.89625 16.62875 3.8125 16.4375 C0.42880118 16.04920669 -1.76425888 16.11752515 -5 17 C-4.938125 16.071875 -4.87625 15.14375 -4.8125 14.1875 C-4.67622737 11.02056752 -4.67622737 11.02056752 -6.5 9.25 C-6.995 8.8375 -7.49 8.425 -8 8 C-8 7.34 -8 6.68 -8 6 C-6.576875 5.9071875 -6.576875 5.9071875 -5.125 5.8125 C-4.09375 5.544375 -3.0625 5.27625 -2 5 C-0.54708727 2.53744315 -0.54708727 2.53744315 0 0 Z " fill="#000000" transform="translate(30,0)"/>
<path d="M0 0 C0.66 0 1.32 0 2 0 C2.20625 0.804375 2.4125 1.60875 2.625 2.4375 C3.07875 3.283125 3.5325 4.12875 4 5 C7.05272465 5.89830839 7.05272465 5.89830839 10 6 C9.5359375 6.8971875 9.5359375 6.8971875 9.0625 7.8125 C7.43642261 11.1603064 7 13.2094894 7 17 C5.948125 16.814375 4.89625 16.62875 3.8125 16.4375 C0.42880118 16.04920669 -1.76425888 16.11752515 -5 17 C-4.938125 16.071875 -4.87625 15.14375 -4.8125 14.1875 C-4.67622737 11.02056752 -4.67622737 11.02056752 -6.5 9.25 C-6.995 8.8375 -7.49 8.425 -8 8 C-8 7.34 -8 6.68 -8 6 C-6.576875 5.9071875 -6.576875 5.9071875 -5.125 5.8125 C-4.09375 5.544375 -3.0625 5.27625 -2 5 C-0.54708727 2.53744315 -0.54708727 2.53744315 0 0 Z " fill="#000000" transform="translate(8,0)"/>
</svg>
