<?xml version="1.0" encoding="UTF-8"?>
<svg version="1.1" xmlns="http://www.w3.org/2000/svg" width="64" height="64">
<path d="M0 0 C0.81977325 -0.0033284 1.63954651 -0.0066568 2.48416138 -0.01008606 C4.21388185 -0.01513518 5.94361201 -0.01749501 7.67333984 -0.01733398 C10.3045271 -0.01951815 12.93529319 -0.03768873 15.56640625 -0.05664062 C17.25260274 -0.05957553 18.93880121 -0.06155968 20.625 -0.0625 C21.79408401 -0.07327827 21.79408401 -0.07327827 22.98678589 -0.08427429 C28.27281387 -0.06241879 33.86470889 0.14283138 38.1875 3.53515625 C41.41943588 7.83697435 42.5532901 10.88447074 42.60644531 16.18286133 C42.61605286 16.96079544 42.6256604 17.73872955 42.63555908 18.54023743 C42.63980896 19.37258408 42.64405884 20.20493073 42.6484375 21.0625 C42.65413757 21.92808029 42.65983765 22.79366058 42.66571045 23.68547058 C42.67514451 25.51531762 42.68168809 27.34518153 42.68554688 29.17504883 C42.69524161 31.96010321 42.72627532 34.74441588 42.7578125 37.52929688 C42.76434433 39.31119356 42.76959409 41.09309549 42.7734375 42.875 C42.7857843 43.70127396 42.7981311 44.52754791 42.81085205 45.37886047 C42.78627547 51.82695657 41.80118197 56.81209928 37.0703125 61.54296875 C32.03394821 64.66071807 26.66596655 64.327734 20.890625 64.3359375 C19.66096512 64.3409301 19.66096512 64.3409301 18.40646362 64.34602356 C16.67674315 64.35107268 14.94701299 64.35343251 13.21728516 64.35327148 C10.5860979 64.35545565 7.95533181 64.37362623 5.32421875 64.39257812 C3.63802226 64.39551303 1.95182379 64.39749718 0.265625 64.3984375 C-0.90345901 64.40921577 -0.90345901 64.40921577 -2.09616089 64.42021179 C-7.38218887 64.39835629 -12.97408389 64.19310612 -17.296875 60.80078125 C-20.52881088 56.49896315 -21.6626651 53.45146676 -21.71582031 48.15307617 C-21.72542786 47.37514206 -21.7350354 46.59720795 -21.74493408 45.79570007 C-21.74918396 44.96335342 -21.75343384 44.13100677 -21.7578125 43.2734375 C-21.76351257 42.40785721 -21.76921265 41.54227692 -21.77508545 40.65046692 C-21.78451951 38.82061988 -21.79106309 36.99075597 -21.79492188 35.16088867 C-21.80461661 32.37583429 -21.83565032 29.59152162 -21.8671875 26.80664062 C-21.87371933 25.02474394 -21.87896909 23.24284201 -21.8828125 21.4609375 C-21.8951593 20.63466354 -21.9075061 19.80838959 -21.92022705 18.95707703 C-21.89565047 12.50898093 -20.91055697 7.52383822 -16.1796875 2.79296875 C-11.14332321 -0.32478057 -5.77534155 0.0082035 0 0 Z " fill="#020202" transform="translate(21.5546875,-0.16796875)"/>
<path d="M0 0 C1.98 0 3.96 0 6 0 C6.4640625 1.7015625 6.4640625 1.7015625 6.9375 3.4375 C7.62924531 6.78775099 7.62924531 6.78775099 9 8 C11.32817964 8.36760731 13.6618385 8.70241581 16 9 C16 11.31 16 13.62 16 16 C9.25 16.125 9.25 16.125 7 15 C6.97421875 16.08539062 6.9484375 17.17078125 6.921875 18.2890625 C6.86556262 19.73441349 6.808216 21.17972444 6.75 22.625 C6.72873047 23.69427734 6.72873047 23.69427734 6.70703125 24.78515625 C6.47222014 29.90403844 5.3437884 32.9261 2 37 C-2.37346615 39.9156441 -5.78665994 40.56872801 -11 40 C-15.1574796 38.20472472 -17.3002055 36.20475482 -19 32 C-19.63290308 27.84092259 -19.99997224 23.84439325 -17.9453125 20.0546875 C-16.18915512 17.9036545 -14.49465426 16.24732713 -12 15 C-9.3276379 14.86584528 -6.67749512 14.95681459 -4 15 C-4 16.98 -4 18.96 -4 21 C-5.7015625 21.4640625 -5.7015625 21.4640625 -7.4375 21.9375 C-10.78775099 22.62924531 -10.78775099 22.62924531 -12 24 C-12.38880902 28.14839745 -12.38880902 28.14839745 -10.8125 31.875 C-8.31963619 33.42229478 -6.88032665 33.50405716 -4 33 C-0.66303978 29.69965455 -0.58843304 26.83254644 -0.48828125 22.265625 C-0.45283203 20.97011719 -0.41738281 19.67460937 -0.38085938 18.33984375 C-0.35776133 16.97656774 -0.33497886 15.61328636 -0.3125 14.25 C-0.27931352 12.87106138 -0.24482262 11.4921535 -0.20898438 10.11328125 C-0.12647709 6.74226941 -0.05733229 3.37151872 0 0 Z " fill="#F4F4F4" transform="translate(34,12)"/>
</svg>
