<?xml version="1.0" encoding="UTF-8"?>
<svg version="1.1" xmlns="http://www.w3.org/2000/svg" width="64" height="64">
<path d="M0 0 C1.35859131 -0.00574036 1.35859131 -0.00574036 2.74462891 -0.01159668 C4.65072752 -0.01430654 6.55686391 -0.00701051 8.46289062 0.00976562 C11.36673541 0.03118903 14.26810641 0.00993288 17.171875 -0.015625 C19.03125542 -0.01298156 20.8906343 -0.00785624 22.75 0 C24.04091553 -0.01214539 24.04091553 -0.01214539 25.35791016 -0.02453613 C31.18510181 0.0653117 34.6971938 0.95905432 39.375 4.53125 C43.5426156 9.98876125 43.96960023 14.42284557 43.90625 21.15625 C43.91199036 22.51484131 43.91199036 22.51484131 43.91784668 23.90087891 C43.92055654 25.80697752 43.91326051 27.71311391 43.89648438 29.61914062 C43.87506097 32.52298541 43.89631712 35.42435641 43.921875 38.328125 C43.91923156 40.18750542 43.91410624 42.0468843 43.90625 43.90625 C43.91434692 44.76686035 43.92244385 45.6274707 43.93078613 46.51416016 C43.8409383 52.34135181 42.94719568 55.8534438 39.375 60.53125 C33.91748875 64.6988656 29.48340443 65.12585023 22.75 65.0625 C21.39140869 65.06824036 21.39140869 65.06824036 20.00537109 65.07409668 C18.09927248 65.07680654 16.19313609 65.06951051 14.28710938 65.05273438 C11.38326459 65.03131097 8.48189359 65.05256712 5.578125 65.078125 C3.71874458 65.07548156 1.8593657 65.07035624 0 65.0625 C-1.29091553 65.07464539 -1.29091553 65.07464539 -2.60791016 65.08703613 C-8.43510181 64.9971883 -11.9471938 64.10344568 -16.625 60.53125 C-20.7926156 55.07373875 -21.21960023 50.63965443 -21.15625 43.90625 C-21.1600769 43.00052246 -21.16390381 42.09479492 -21.16784668 41.16162109 C-21.17055654 39.25552248 -21.16326051 37.34938609 -21.14648438 35.44335938 C-21.12506097 32.53951459 -21.14631712 29.63814359 -21.171875 26.734375 C-21.16923156 24.87499458 -21.16410624 23.0156157 -21.15625 21.15625 C-21.16434692 20.29563965 -21.17244385 19.4350293 -21.18078613 18.54833984 C-21.0909383 12.72114819 -20.19719568 9.2090562 -16.625 4.53125 C-11.16748875 0.3636344 -6.73340443 -0.06335023 0 0 Z M-14.97900391 11.25048828 C-15.9863234 14.80694281 -15.95062854 18.3562 -15.9609375 22.0234375 C-15.9675943 22.84699738 -15.9742511 23.67055725 -15.98110962 24.51907349 C-15.99122003 26.2589495 -15.99592714 27.99886417 -15.99560547 29.73876953 C-15.99997373 32.39030408 -16.03629465 35.04016657 -16.07421875 37.69140625 C-16.0800884 39.385411 -16.0840568 41.07942362 -16.0859375 42.7734375 C-16.10030853 43.56112518 -16.11467957 44.34881287 -16.12948608 45.16036987 C-16.08647347 50.38502927 -15.15481694 53.43498629 -11.625 57.53125 C-8.02275721 60.3682336 -3.52364217 59.85484445 0.8671875 59.8671875 C1.69074738 59.8738443 2.51430725 59.8805011 3.36282349 59.88735962 C5.1026995 59.89747003 6.84261417 59.90217714 8.58251953 59.90185547 C11.23405408 59.90622373 13.88391657 59.94254465 16.53515625 59.98046875 C18.229161 59.9863384 19.92317362 59.9903068 21.6171875 59.9921875 C22.79871902 60.01374405 22.79871902 60.01374405 24.00411987 60.03573608 C29.22877927 59.99272347 32.27873629 59.06106694 36.375 55.53125 C39.2119836 51.92900721 38.69859445 47.42989217 38.7109375 43.0390625 C38.7175943 42.21550262 38.7242511 41.39194275 38.73110962 40.54342651 C38.74122003 38.8035505 38.74592714 37.06363583 38.74560547 35.32373047 C38.74997373 32.67219592 38.78629465 30.02233343 38.82421875 27.37109375 C38.8300884 25.677089 38.8340568 23.98307638 38.8359375 22.2890625 C38.85030853 21.50137482 38.86467957 20.71368713 38.87948608 19.90213013 C38.83647347 14.67747073 37.90481694 11.62751371 34.375 7.53125 C30.77275721 4.6942664 26.27364217 5.20765555 21.8828125 5.1953125 C21.05925262 5.1886557 20.23569275 5.1819989 19.38717651 5.17514038 C17.6473005 5.16502997 15.90738583 5.16032286 14.16748047 5.16064453 C11.51594592 5.15627627 8.86608343 5.11995535 6.21484375 5.08203125 C4.520839 5.0761616 2.82682638 5.0721932 1.1328125 5.0703125 C0.34512482 5.05594147 -0.44256287 5.04157043 -1.25411987 5.02676392 C-7.11372625 5.0750038 -11.18606229 6.43442357 -14.97900391 11.25048828 Z " fill="#000000" transform="translate(20.625,-0.53125)"/>
<path d="M0 0 C1.04285156 0.09023437 2.08570313 0.18046875 3.16015625 0.2734375 C5.9375 0.625 5.9375 0.625 8.9375 1.625 C9.27611114 6.47842635 8.43507431 8.55487891 5.9375 12.625 C5.44930619 14.24128007 4.99400678 15.8676715 4.5625 17.5 C2.56332768 24.36450494 -0.1429527 28.72733258 -6.3125 32.5 C-13.92011593 36.31640336 -21.04869731 36.2451917 -29.0625 33.625 C-30.40904913 32.9854473 -31.74675688 32.32574409 -33.0625 31.625 C-32.7325 29.975 -32.4025 28.325 -32.0625 26.625 C-30.0825 26.295 -28.1025 25.965 -26.0625 25.625 C-26.68125 24.903125 -27.3 24.18125 -27.9375 23.4375 C-31.77635661 18.35666037 -32.70498736 13.96338496 -32.0625 7.625 C-31.0625 4.125 -31.0625 4.125 -30.0625 1.625 C-25.58828095 2.13633932 -23.51758549 3.86093161 -20.0625 6.625 C-17.37742671 7.41446609 -17.37742671 7.41446609 -15.0625 7.625 C-14.60875 6.84125 -14.155 6.0575 -13.6875 5.25 C-11.05184846 0.99240905 -11.05184846 0.99240905 -8.31640625 -0.0234375 C-5.4548147 -0.46978627 -2.88248183 -0.2643168 0 0 Z M-8.8125 6.8125 C-10.35088998 9.04316548 -10.70255447 10.9614031 -11.0625 13.625 C-16.52000442 13.15452548 -20.19245234 12.29193086 -25.0625 9.625 C-25.7225 9.625 -26.3825 9.625 -27.0625 9.625 C-27.08916171 15.17516934 -27.08916171 15.17516934 -24.21484375 19.71484375 C-22.21613404 21.43859868 -20.19499137 23.07056438 -18.0625 24.625 C-18.3925 26.275 -18.7225 27.925 -19.0625 29.625 C-12.89303913 29.59702059 -8.97402355 28.65323427 -4.49609375 24.2890625 C-0.29789078 19.41594407 0.77653804 13.77126921 1.9375 7.625 C-1.79128931 5.63789572 -5.00478563 4.22869382 -8.8125 6.8125 Z " fill="#000000" transform="translate(44.0625,14.375)"/>
</svg>
