<svg viewBox="0 0 800 1070" xmlns="http://www.w3.org/2000/svg">
            <!-- Hero Section -->
            <rect x="50" y="20" width="700" height="200" fill="#f0f0f0"/>
            <text x="70" y="60" font-family="Arial" font-size="24" fill="#333">Connect Through Literature</text>
            <text x="70" y="100" font-family="Arial" font-size="14" fill="#666">Find local LDS book clubs or start your own</text>
            <rect x="70" y="140" width="300" height="40" fill="#fff" stroke="#ddd"/>
            <text x="90" y="165" font-family="Arial" font-size="14" fill="#666">Search by location or ward...</text>
            
            <!-- Featured Books Section -->
            <text x="50" y="270" font-family="Arial" font-size="20" fill="#333">Monthly Featured Books</text>
            <rect x="50" y="290" width="700" height="150" fill="#f5f5f5"/>
            <!-- Book cards -->
            <rect x="70" y="310" width="100" height="110" fill="#ddd"/>
            <rect x="190" y="310" width="100" height="110" fill="#ddd"/>
            <rect x="310" y="310" width="100" height="110" fill="#ddd"/>
            
            <!-- Upcoming Events -->
            <text x="50" y="490" font-family="Arial" font-size="20" fill="#333">Upcoming Book Club Meetings</text>
            <rect x="50" y="510" width="340" height="200" fill="#f5f5f5"/>
            <rect x="70" y="530" width="300" height="160" fill="#fff"/>
            
            <!-- Start a Club Section -->
            <text x="410" y="490" font-family="Arial" font-size="20" fill="#333">Start Your Own Club</text>
            <rect x="410" y="510" width="340" height="200" fill="#f5f5f5"/>
            <rect x="430" y="530" width="300" height="160" fill="#fff"/>
            
            <!-- Community Forums -->
            <text x="50" y="760" font-family="Arial" font-size="20" fill="#333">Community Discussions</text>
            <rect x="50" y="780" width="700" height="180" fill="#f5f5f5"/>
            <rect x="70" y="800" width="660" height="40" fill="#fff"/>
            <rect x="70" y="850" width="660" height="40" fill="#fff"/>
            <rect x="70" y="900" width="660" height="40" fill="#fff"/>
            
            <!-- Newsletter Signup -->
            <rect x="50" y="980" width="700" height="80" fill="#f0f0f0"/>
            <text x="70" y="1010" font-family="Arial" font-size="16" fill="#333">Stay Updated with Our Newsletter</text>
            <rect x="70" y="1020" width="300" height="30" fill="#fff"/>
          </svg>